<mxfile host="app.diagrams.net" modified="2024-03-13T14:58:39.652Z" agent="Mozilla/5.0 (X11; Ubuntu; Linux x86_64; rv:123.0) Gecko/20100101 Firefox/123.0" version="24.0.5" etag="Nvd8SOwqz2xI9gZ3-soB" type="github">
  <diagram name="Page-1" id="xticCTIPS6AH7k8g0Nba">
    <mxGraphModel>
      <root>
        <mxCell id="0" />
        <mxCell id="1" parent="0" />
      </root>
    </mxGraphModel>
  </diagram>
</mxfile>
